<svg width="21" height="21" viewBox="0 0 21 21" fill="none" xmlns="http://www.w3.org/2000/svg">
<path fill-rule="evenodd" clip-rule="evenodd" d="M8.91725 3.24707C4.06525 3.24707 0.131836 7.10415 0.131836 11.8623C0.131836 16.6203 4.06525 20.4775 8.91725 20.4775C13.7694 20.4775 17.7027 16.6203 17.7027 11.8623C17.7027 7.10415 13.7694 3.24707 8.91725 3.24707ZM8.91725 5.31466C12.5989 5.31466 15.5942 8.25191 15.5942 11.8623C15.5942 15.4725 12.5989 18.4098 8.91725 18.4098C5.23568 18.4098 2.24028 15.4725 2.24028 11.8623C2.24028 8.25191 5.23568 5.31466 8.91725 5.31466Z" fill="white"/>
<path fill-rule="evenodd" clip-rule="evenodd" d="M11.3464 0.90332C6.49445 0.90332 2.56104 4.7604 2.56104 9.51853C2.56104 14.2765 6.49445 18.1337 11.3464 18.1337C16.1986 18.1337 20.1319 14.2765 20.1319 9.51853C20.1319 4.7604 16.1986 0.90332 11.3464 0.90332ZM11.8823 2.97091C15.564 2.97091 18.5593 5.90816 18.5593 9.51853C18.5593 13.1288 15.564 16.066 11.8823 16.066C8.20073 16.066 5.20533 13.1288 5.20533 9.51853C5.20533 5.90816 8.20073 2.97091 11.8823 2.97091Z" fill="white"/>
</svg>
